<mxfile host="65bd71144e">
    <diagram id="UeV4O0vadHsxttDCfMwU" name="第 1 页">
        <mxGraphModel dx="1714" dy="480" grid="1" gridSize="10" guides="1" tooltips="1" connect="1" arrows="1" fold="1" page="0" pageScale="1" pageWidth="827" pageHeight="1169" background="#FFFFFF" math="0" shadow="1">
            <root>
                <mxCell id="0"/>
                <mxCell id="1" parent="0"/>
                <mxCell id="7" value="" style="edgeStyle=none;html=1;rounded=1;strokeColor=default;shadow=0;sketch=0;fontStyle=1;labelBorderColor=none;horizontal=1;" parent="1" source="2" target="6" edge="1">
                    <mxGeometry relative="1" as="geometry"/>
                </mxCell>
                <mxCell id="10" value="" style="edgeStyle=none;html=1;rounded=1;strokeColor=default;shadow=0;sketch=0;fontStyle=1;labelBorderColor=none;horizontal=1;" parent="1" source="6" target="9" edge="1">
                    <mxGeometry relative="1" as="geometry"/>
                </mxCell>
                <mxCell id="6" value="用户输入魔王语言" style="shape=parallelogram;perimeter=parallelogramPerimeter;whiteSpace=wrap;html=1;fixedSize=1;rounded=1;fillColor=#dae8fc;strokeColor=default;shadow=0;sketch=0;fontStyle=1;labelBorderColor=none;horizontal=1;" parent="1" vertex="1">
                    <mxGeometry x="-394" y="396" width="120" height="60" as="geometry"/>
                </mxCell>
                <mxCell id="15" value="YES" style="edgeStyle=none;html=1;exitX=1;exitY=0.5;exitDx=0;exitDy=0;entryX=0;entryY=0.5;entryDx=0;entryDy=0;rounded=1;strokeColor=default;shadow=0;sketch=0;fontStyle=1;labelBorderColor=none;horizontal=1;" parent="1" source="9" target="14" edge="1">
                    <mxGeometry relative="1" as="geometry"/>
                </mxCell>
                <mxCell id="16" value="NO" style="edgeStyle=none;html=1;exitX=0;exitY=0.5;exitDx=0;exitDy=0;entryX=1;entryY=0.5;entryDx=0;entryDy=0;rounded=1;strokeColor=default;shadow=0;sketch=0;fontStyle=1;labelBorderColor=none;horizontal=1;" parent="1" source="9" target="13" edge="1">
                    <mxGeometry relative="1" as="geometry"/>
                </mxCell>
                <mxCell id="9" value="判断是否合法" style="rhombus;whiteSpace=wrap;html=1;rounded=1;fillColor=#f5f5f5;fontColor=#333333;strokeColor=default;shadow=0;sketch=0;fontStyle=1;labelBorderColor=none;horizontal=1;" parent="1" vertex="1">
                    <mxGeometry x="-376" y="478" width="80" height="80" as="geometry"/>
                </mxCell>
                <mxCell id="17" style="edgeStyle=none;html=1;entryX=0;entryY=0.5;entryDx=0;entryDy=0;rounded=1;strokeColor=default;shadow=0;sketch=0;fontStyle=1;labelBorderColor=none;horizontal=1;" parent="1" source="13" target="6" edge="1">
                    <mxGeometry relative="1" as="geometry">
                        <Array as="points">
                            <mxPoint x="-523" y="426"/>
                        </Array>
                    </mxGeometry>
                </mxCell>
                <mxCell id="13" value="提示用户再次输入" style="rounded=1;whiteSpace=wrap;html=1;fillColor=#d5e8d4;strokeColor=default;shadow=0;sketch=0;fontStyle=1;labelBorderColor=none;horizontal=1;" parent="1" vertex="1">
                    <mxGeometry x="-583" y="488" width="120" height="60" as="geometry"/>
                </mxCell>
                <mxCell id="14" value="打印输出解释后的语言" style="rounded=1;whiteSpace=wrap;html=1;fillColor=#d5e8d4;strokeColor=default;shadow=0;sketch=0;fontStyle=1;labelBorderColor=none;horizontal=1;" parent="1" vertex="1">
                    <mxGeometry x="-209" y="488" width="120" height="60" as="geometry"/>
                </mxCell>
                <mxCell id="2" value="魔王语言" style="rounded=1;whiteSpace=wrap;html=1;fillColor=#ffe6cc;strokeColor=default;shadow=0;sketch=0;fontStyle=1;labelBorderColor=none;horizontal=1;" parent="1" vertex="1">
                    <mxGeometry x="-394" y="297" width="120" height="60" as="geometry"/>
                </mxCell>
            </root>
        </mxGraphModel>
    </diagram>
    <diagram id="qtq6lIwE435wc-b-I-a-" name="第 2 页">
        <mxGraphModel dx="2776" dy="2048" grid="1" gridSize="20" guides="1" tooltips="1" connect="1" arrows="1" fold="1" page="0" pageScale="1" pageWidth="827" pageHeight="1169" background="#FFFFFF" math="0" shadow="1">
            <root>
                <mxCell id="F16Nh3tXhF5KqkFv6Rhh-0"/>
                <mxCell id="F16Nh3tXhF5KqkFv6Rhh-1" parent="F16Nh3tXhF5KqkFv6Rhh-0"/>
                <mxCell id="F16Nh3tXhF5KqkFv6Rhh-5" value="1" style="edgeStyle=none;html=1;fontSize=40;fontStyle=1;rounded=1;" parent="F16Nh3tXhF5KqkFv6Rhh-1" source="F16Nh3tXhF5KqkFv6Rhh-2" target="F16Nh3tXhF5KqkFv6Rhh-4" edge="1">
                    <mxGeometry relative="1" as="geometry"/>
                </mxCell>
                <mxCell id="F16Nh3tXhF5KqkFv6Rhh-2" value="A" style="ellipse;whiteSpace=wrap;html=1;aspect=fixed;fontSize=20;fontStyle=1;rounded=1;" parent="F16Nh3tXhF5KqkFv6Rhh-1" vertex="1">
                    <mxGeometry x="130" y="440" width="80" height="80" as="geometry"/>
                </mxCell>
                <mxCell id="F16Nh3tXhF5KqkFv6Rhh-27" style="edgeStyle=none;html=1;exitX=0.5;exitY=1;exitDx=0;exitDy=0;fontSize=20;fontStyle=1;rounded=1;" parent="F16Nh3tXhF5KqkFv6Rhh-1" source="F16Nh3tXhF5KqkFv6Rhh-3" edge="1">
                    <mxGeometry relative="1" as="geometry">
                        <mxPoint x="220" y="490" as="targetPoint"/>
                    </mxGeometry>
                </mxCell>
                <mxCell id="F16Nh3tXhF5KqkFv6Rhh-39" value="从左至右依次入栈" style="edgeLabel;html=1;align=center;verticalAlign=middle;resizable=0;points=[];fontSize=20;fontStyle=1;rounded=1;" parent="F16Nh3tXhF5KqkFv6Rhh-27" vertex="1" connectable="0">
                    <mxGeometry x="0.1969" relative="1" as="geometry">
                        <mxPoint x="-17" as="offset"/>
                    </mxGeometry>
                </mxCell>
                <mxCell id="F16Nh3tXhF5KqkFv6Rhh-3" value="A(a(bc)c)B" style="rounded=1;whiteSpace=wrap;html=1;fontSize=20;fontStyle=1;" parent="F16Nh3tXhF5KqkFv6Rhh-1" vertex="1">
                    <mxGeometry x="430" y="430" width="240" height="60" as="geometry"/>
                </mxCell>
                <mxCell id="F16Nh3tXhF5KqkFv6Rhh-7" value="" style="edgeStyle=none;html=1;fontSize=20;fontStyle=1;rounded=1;" parent="F16Nh3tXhF5KqkFv6Rhh-1" source="F16Nh3tXhF5KqkFv6Rhh-4" target="F16Nh3tXhF5KqkFv6Rhh-6" edge="1">
                    <mxGeometry relative="1" as="geometry"/>
                </mxCell>
                <mxCell id="F16Nh3tXhF5KqkFv6Rhh-22" value="2" style="edgeStyle=none;html=1;fontSize=40;fontStyle=1;rounded=1;" parent="F16Nh3tXhF5KqkFv6Rhh-1" source="F16Nh3tXhF5KqkFv6Rhh-4" target="F16Nh3tXhF5KqkFv6Rhh-21" edge="1">
                    <mxGeometry relative="1" as="geometry"/>
                </mxCell>
                <mxCell id="F16Nh3tXhF5KqkFv6Rhh-4" value="(" style="ellipse;whiteSpace=wrap;html=1;aspect=fixed;fontSize=20;fontStyle=1;rounded=1;" parent="F16Nh3tXhF5KqkFv6Rhh-1" vertex="1">
                    <mxGeometry x="130" y="300" width="80" height="80" as="geometry"/>
                </mxCell>
                <mxCell id="F16Nh3tXhF5KqkFv6Rhh-9" value="3" style="edgeStyle=none;html=1;fontSize=40;fontStyle=1;rounded=1;" parent="F16Nh3tXhF5KqkFv6Rhh-1" source="F16Nh3tXhF5KqkFv6Rhh-6" target="F16Nh3tXhF5KqkFv6Rhh-8" edge="1">
                    <mxGeometry relative="1" as="geometry"/>
                </mxCell>
                <mxCell id="F16Nh3tXhF5KqkFv6Rhh-6" value="(" style="ellipse;whiteSpace=wrap;html=1;aspect=fixed;fontSize=20;fontStyle=1;rounded=1;" parent="F16Nh3tXhF5KqkFv6Rhh-1" vertex="1">
                    <mxGeometry x="130" y="140" width="80" height="80" as="geometry"/>
                </mxCell>
                <mxCell id="F16Nh3tXhF5KqkFv6Rhh-11" value="4" style="edgeStyle=none;html=1;fontSize=40;fontStyle=1;rounded=1;" parent="F16Nh3tXhF5KqkFv6Rhh-1" source="F16Nh3tXhF5KqkFv6Rhh-8" target="F16Nh3tXhF5KqkFv6Rhh-10" edge="1">
                    <mxGeometry relative="1" as="geometry"/>
                </mxCell>
                <mxCell id="F16Nh3tXhF5KqkFv6Rhh-29" value="8" style="edgeStyle=none;html=1;exitX=0;exitY=1;exitDx=0;exitDy=0;fontSize=40;fontStyle=1;rounded=1;" parent="F16Nh3tXhF5KqkFv6Rhh-1" source="F16Nh3tXhF5KqkFv6Rhh-8" edge="1">
                    <mxGeometry x="-0.5573" y="4" relative="1" as="geometry">
                        <mxPoint x="30" y="180" as="targetPoint"/>
                        <mxPoint as="offset"/>
                    </mxGeometry>
                </mxCell>
                <mxCell id="F16Nh3tXhF5KqkFv6Rhh-8" value="(" style="ellipse;whiteSpace=wrap;html=1;aspect=fixed;fontSize=20;fontStyle=1;fillColor=#a20025;fontColor=#ffffff;strokeColor=#6F0000;rounded=1;" parent="F16Nh3tXhF5KqkFv6Rhh-1" vertex="1">
                    <mxGeometry x="130" y="-20" width="80" height="80" as="geometry"/>
                </mxCell>
                <mxCell id="F16Nh3tXhF5KqkFv6Rhh-24" value="5" style="edgeStyle=none;html=1;fontSize=40;fontStyle=1;rounded=1;" parent="F16Nh3tXhF5KqkFv6Rhh-1" source="F16Nh3tXhF5KqkFv6Rhh-10" target="F16Nh3tXhF5KqkFv6Rhh-23" edge="1">
                    <mxGeometry relative="1" as="geometry"/>
                </mxCell>
                <mxCell id="F16Nh3tXhF5KqkFv6Rhh-51" value="7" style="edgeStyle=none;html=1;exitX=1;exitY=0.5;exitDx=0;exitDy=0;entryX=0;entryY=0.5;entryDx=0;entryDy=0;fontSize=40;fontColor=#00CC00;rounded=1;" parent="F16Nh3tXhF5KqkFv6Rhh-1" source="F16Nh3tXhF5KqkFv6Rhh-10" target="F16Nh3tXhF5KqkFv6Rhh-17" edge="1">
                    <mxGeometry relative="1" as="geometry">
                        <Array as="points">
                            <mxPoint x="210" y="-90"/>
                        </Array>
                    </mxGeometry>
                </mxCell>
                <mxCell id="F16Nh3tXhF5KqkFv6Rhh-10" value="b" style="ellipse;whiteSpace=wrap;html=1;aspect=fixed;fontSize=20;fontStyle=1;rounded=1;" parent="F16Nh3tXhF5KqkFv6Rhh-1" vertex="1">
                    <mxGeometry x="130" y="-190" width="80" height="80" as="geometry"/>
                </mxCell>
                <mxCell id="F16Nh3tXhF5KqkFv6Rhh-44" value="9" style="edgeStyle=none;html=1;exitX=0;exitY=1;exitDx=0;exitDy=0;entryX=1;entryY=0;entryDx=0;entryDy=0;fontSize=40;fontStyle=1;fontColor=#FF9933;rounded=1;" parent="F16Nh3tXhF5KqkFv6Rhh-1" source="F16Nh3tXhF5KqkFv6Rhh-17" target="F16Nh3tXhF5KqkFv6Rhh-30" edge="1">
                    <mxGeometry relative="1" as="geometry">
                        <Array as="points">
                            <mxPoint x="369" y="-62"/>
                        </Array>
                    </mxGeometry>
                </mxCell>
                <mxCell id="F16Nh3tXhF5KqkFv6Rhh-47" value="11" style="edgeStyle=none;html=1;exitX=1;exitY=1;exitDx=0;exitDy=0;entryX=0.5;entryY=0;entryDx=0;entryDy=0;fontSize=40;fontStyle=1;fontColor=#FF9933;rounded=1;" parent="F16Nh3tXhF5KqkFv6Rhh-1" source="F16Nh3tXhF5KqkFv6Rhh-17" target="F16Nh3tXhF5KqkFv6Rhh-34" edge="1">
                    <mxGeometry x="0.3977" y="5" relative="1" as="geometry">
                        <Array as="points"/>
                        <mxPoint x="-1" y="-1" as="offset"/>
                    </mxGeometry>
                </mxCell>
                <mxCell id="F16Nh3tXhF5KqkFv6Rhh-50" style="edgeStyle=none;html=1;exitX=1;exitY=0.5;exitDx=0;exitDy=0;entryX=0;entryY=0.5;entryDx=0;entryDy=0;fontSize=20;fontColor=#FF9933;rounded=1;" parent="F16Nh3tXhF5KqkFv6Rhh-1" source="F16Nh3tXhF5KqkFv6Rhh-17" target="F16Nh3tXhF5KqkFv6Rhh-19" edge="1">
                    <mxGeometry relative="1" as="geometry"/>
                </mxCell>
                <mxCell id="F16Nh3tXhF5KqkFv6Rhh-17" value="b" style="ellipse;whiteSpace=wrap;html=1;aspect=fixed;fontSize=20;fontStyle=1;fillColor=#d5e8d4;strokeColor=#82b366;rounded=1;" parent="F16Nh3tXhF5KqkFv6Rhh-1" vertex="1">
                    <mxGeometry x="430" y="-130" width="80" height="80" as="geometry"/>
                </mxCell>
                <mxCell id="F16Nh3tXhF5KqkFv6Rhh-45" value="10" style="edgeStyle=none;html=1;exitX=0.333;exitY=1.007;exitDx=0;exitDy=0;entryX=0.5;entryY=0;entryDx=0;entryDy=0;fontSize=40;fontStyle=1;fontColor=#FF9933;exitPerimeter=0;rounded=1;" parent="F16Nh3tXhF5KqkFv6Rhh-1" source="F16Nh3tXhF5KqkFv6Rhh-19" target="F16Nh3tXhF5KqkFv6Rhh-32" edge="1">
                    <mxGeometry x="0.3151" y="2" relative="1" as="geometry">
                        <Array as="points">
                            <mxPoint x="480" y="-50"/>
                        </Array>
                        <mxPoint as="offset"/>
                    </mxGeometry>
                </mxCell>
                <mxCell id="F16Nh3tXhF5KqkFv6Rhh-19" value="c" style="ellipse;whiteSpace=wrap;html=1;aspect=fixed;fontSize=20;fontStyle=1;fillColor=#d5e8d4;strokeColor=#82b366;rounded=1;" parent="F16Nh3tXhF5KqkFv6Rhh-1" vertex="1">
                    <mxGeometry x="610" y="-130" width="80" height="80" as="geometry"/>
                </mxCell>
                <mxCell id="F16Nh3tXhF5KqkFv6Rhh-31" style="edgeStyle=none;html=1;exitX=1;exitY=0;exitDx=0;exitDy=0;fontSize=20;fontStyle=1;rounded=1;" parent="F16Nh3tXhF5KqkFv6Rhh-1" source="F16Nh3tXhF5KqkFv6Rhh-21" target="F16Nh3tXhF5KqkFv6Rhh-30" edge="1">
                    <mxGeometry relative="1" as="geometry"/>
                </mxCell>
                <mxCell id="F16Nh3tXhF5KqkFv6Rhh-21" value="a" style="ellipse;whiteSpace=wrap;html=1;aspect=fixed;fontSize=20;fontStyle=1;rounded=1;" parent="F16Nh3tXhF5KqkFv6Rhh-1" vertex="1">
                    <mxGeometry x="130" y="140" width="80" height="80" as="geometry"/>
                </mxCell>
                <mxCell id="F16Nh3tXhF5KqkFv6Rhh-23" value="c" style="ellipse;whiteSpace=wrap;html=1;aspect=fixed;fontSize=20;fontStyle=1;rounded=1;" parent="F16Nh3tXhF5KqkFv6Rhh-1" vertex="1">
                    <mxGeometry x="130" y="-330" width="80" height="80" as="geometry"/>
                </mxCell>
                <mxCell id="F16Nh3tXhF5KqkFv6Rhh-26" value="" style="endArrow=classic;html=1;fontSize=20;fontStyle=1;entryX=0.5;entryY=0;entryDx=0;entryDy=0;rounded=1;" parent="F16Nh3tXhF5KqkFv6Rhh-1" target="F16Nh3tXhF5KqkFv6Rhh-19" edge="1">
                    <mxGeometry width="50" height="50" relative="1" as="geometry">
                        <mxPoint x="210" y="-280" as="sourcePoint"/>
                        <mxPoint x="440" y="-130" as="targetPoint"/>
                        <Array as="points">
                            <mxPoint x="650" y="-280"/>
                        </Array>
                    </mxGeometry>
                </mxCell>
                <mxCell id="F16Nh3tXhF5KqkFv6Rhh-42" value="当遇到第一个左括号时候停止入队" style="edgeLabel;html=1;align=center;verticalAlign=middle;resizable=0;points=[];fontSize=20;fontStyle=1;rounded=1;" parent="F16Nh3tXhF5KqkFv6Rhh-26" vertex="1" connectable="0">
                    <mxGeometry x="-0.3875" y="-1" relative="1" as="geometry">
                        <mxPoint x="136" y="43" as="offset"/>
                    </mxGeometry>
                </mxCell>
                <mxCell id="F16Nh3tXhF5KqkFv6Rhh-48" value="6" style="edgeLabel;html=1;align=center;verticalAlign=middle;resizable=0;points=[];fontSize=40;fontColor=#00CC00;rounded=1;" parent="F16Nh3tXhF5KqkFv6Rhh-26" vertex="1" connectable="0">
                    <mxGeometry x="-0.2742" y="2" relative="1" as="geometry">
                        <mxPoint y="-1" as="offset"/>
                    </mxGeometry>
                </mxCell>
                <mxCell id="F16Nh3tXhF5KqkFv6Rhh-33" value="" style="edgeStyle=none;html=1;fontSize=20;fontStyle=1;rounded=1;" parent="F16Nh3tXhF5KqkFv6Rhh-1" source="F16Nh3tXhF5KqkFv6Rhh-30" target="F16Nh3tXhF5KqkFv6Rhh-32" edge="1">
                    <mxGeometry relative="1" as="geometry"/>
                </mxCell>
                <mxCell id="F16Nh3tXhF5KqkFv6Rhh-30" value="b" style="ellipse;whiteSpace=wrap;html=1;aspect=fixed;fontSize=20;fontStyle=1;fillColor=#ffe6cc;strokeColor=#d79b00;rounded=1;" parent="F16Nh3tXhF5KqkFv6Rhh-1" vertex="1">
                    <mxGeometry x="301" y="110" width="80" height="80" as="geometry"/>
                </mxCell>
                <mxCell id="F16Nh3tXhF5KqkFv6Rhh-35" value="" style="edgeStyle=none;html=1;fontSize=20;fontStyle=1;rounded=1;" parent="F16Nh3tXhF5KqkFv6Rhh-1" source="F16Nh3tXhF5KqkFv6Rhh-32" target="F16Nh3tXhF5KqkFv6Rhh-34" edge="1">
                    <mxGeometry relative="1" as="geometry"/>
                </mxCell>
                <mxCell id="F16Nh3tXhF5KqkFv6Rhh-32" value="c" style="ellipse;whiteSpace=wrap;html=1;aspect=fixed;fontSize=20;fontStyle=1;fillColor=#ffe6cc;strokeColor=#d79b00;rounded=1;" parent="F16Nh3tXhF5KqkFv6Rhh-1" vertex="1">
                    <mxGeometry x="440" y="110" width="80" height="80" as="geometry"/>
                </mxCell>
                <mxCell id="F16Nh3tXhF5KqkFv6Rhh-61" style="edgeStyle=none;html=1;exitX=1;exitY=0.5;exitDx=0;exitDy=0;entryX=0;entryY=0.5;entryDx=0;entryDy=0;labelBackgroundColor=none;fontSize=32;fontColor=#FF3333;rounded=1;" parent="F16Nh3tXhF5KqkFv6Rhh-1" source="F16Nh3tXhF5KqkFv6Rhh-34" target="F16Nh3tXhF5KqkFv6Rhh-58" edge="1">
                    <mxGeometry relative="1" as="geometry"/>
                </mxCell>
                <mxCell id="F16Nh3tXhF5KqkFv6Rhh-34" value="b" style="ellipse;whiteSpace=wrap;html=1;aspect=fixed;fontSize=20;fontStyle=1;fillColor=#ffe6cc;strokeColor=#d79b00;rounded=1;" parent="F16Nh3tXhF5KqkFv6Rhh-1" vertex="1">
                    <mxGeometry x="621" y="110" width="80" height="80" as="geometry"/>
                </mxCell>
                <mxCell id="F16Nh3tXhF5KqkFv6Rhh-62" value="12" style="edgeStyle=none;html=1;entryX=0.5;entryY=0;entryDx=0;entryDy=0;labelBackgroundColor=none;fontSize=32;fontColor=#FF3333;rounded=1;" parent="F16Nh3tXhF5KqkFv6Rhh-1" target="F16Nh3tXhF5KqkFv6Rhh-58" edge="1">
                    <mxGeometry relative="1" as="geometry">
                        <mxPoint x="840" as="sourcePoint"/>
                    </mxGeometry>
                </mxCell>
                <mxCell id="F16Nh3tXhF5KqkFv6Rhh-40" value="）" style="ellipse;whiteSpace=wrap;html=1;aspect=fixed;fontSize=20;fontStyle=1;rounded=1;" parent="F16Nh3tXhF5KqkFv6Rhh-1" vertex="1">
                    <mxGeometry x="130" y="-480" width="80" height="80" as="geometry"/>
                </mxCell>
                <mxCell id="F16Nh3tXhF5KqkFv6Rhh-41" value="当遇到第一个括号时候停止入栈，开始入队" style="text;html=1;align=center;verticalAlign=middle;resizable=0;points=[];autosize=1;strokeColor=none;fillColor=none;fontSize=20;fontStyle=1;rounded=1;" parent="F16Nh3tXhF5KqkFv6Rhh-1" vertex="1">
                    <mxGeometry x="-19" y="-385" width="400" height="30" as="geometry"/>
                </mxCell>
                <mxCell id="F16Nh3tXhF5KqkFv6Rhh-53" value="" style="shape=flexArrow;endArrow=classic;html=1;fontSize=40;fontColor=#00CC00;labelBackgroundColor=#FF0000;fillColor=#a20025;strokeColor=#6F0000;rounded=1;" parent="F16Nh3tXhF5KqkFv6Rhh-1" edge="1">
                    <mxGeometry width="50" height="50" relative="1" as="geometry">
                        <mxPoint x="-10" y="510" as="sourcePoint"/>
                        <mxPoint x="-10" y="-340" as="targetPoint"/>
                    </mxGeometry>
                </mxCell>
                <mxCell id="F16Nh3tXhF5KqkFv6Rhh-54" value="" style="shape=flexArrow;endArrow=classic;html=1;fontSize=40;fontColor=#00CC00;labelBackgroundColor=#FF0000;fillColor=#a20025;strokeColor=#6F0000;rounded=1;" parent="F16Nh3tXhF5KqkFv6Rhh-1" edge="1">
                    <mxGeometry width="50" height="50" relative="1" as="geometry">
                        <mxPoint x="340" y="-150.91" as="sourcePoint"/>
                        <mxPoint x="810" y="-150.91" as="targetPoint"/>
                    </mxGeometry>
                </mxCell>
                <mxCell id="F16Nh3tXhF5KqkFv6Rhh-63" style="edgeStyle=none;html=1;exitX=1;exitY=0.5;exitDx=0;exitDy=0;labelBackgroundColor=none;fontSize=32;fontColor=#FF3333;rounded=1;" parent="F16Nh3tXhF5KqkFv6Rhh-1" source="F16Nh3tXhF5KqkFv6Rhh-58" edge="1">
                    <mxGeometry relative="1" as="geometry">
                        <mxPoint x="1080" y="150" as="targetPoint"/>
                        <Array as="points">
                            <mxPoint x="1000" y="150"/>
                        </Array>
                    </mxGeometry>
                </mxCell>
                <mxCell id="F16Nh3tXhF5KqkFv6Rhh-64" value="&lt;span style=&quot;font-size: 20px&quot;&gt;&lt;b&gt;继续寻找右括号&lt;/b&gt;&lt;/span&gt;" style="edgeLabel;html=1;align=center;verticalAlign=middle;resizable=0;points=[];fontSize=32;fontColor=#000000;rounded=1;" parent="F16Nh3tXhF5KqkFv6Rhh-63" vertex="1" connectable="0">
                    <mxGeometry x="0.117" y="-2" relative="1" as="geometry">
                        <mxPoint x="-9" y="-2" as="offset"/>
                    </mxGeometry>
                </mxCell>
                <mxCell id="F16Nh3tXhF5KqkFv6Rhh-58" value="c" style="ellipse;whiteSpace=wrap;html=1;aspect=fixed;fontSize=20;fontColor=#FF3333;rounded=1;" parent="F16Nh3tXhF5KqkFv6Rhh-1" vertex="1">
                    <mxGeometry x="800" y="110" width="80" height="80" as="geometry"/>
                </mxCell>
                <mxCell id="F16Nh3tXhF5KqkFv6Rhh-65" value="括号处理完成后" style="endArrow=none;dashed=1;html=1;dashPattern=1 3;strokeWidth=2;labelBackgroundColor=none;fontSize=20;fontColor=#000000;fontStyle=1;rounded=1;" parent="F16Nh3tXhF5KqkFv6Rhh-1" edge="1">
                    <mxGeometry width="50" height="50" relative="1" as="geometry">
                        <mxPoint x="1070" y="270" as="sourcePoint"/>
                        <mxPoint x="1070" y="160" as="targetPoint"/>
                    </mxGeometry>
                </mxCell>
                <mxCell id="F16Nh3tXhF5KqkFv6Rhh-68" value="c)B" style="rounded=1;whiteSpace=wrap;html=1;fontSize=20;fontStyle=1;" parent="F16Nh3tXhF5KqkFv6Rhh-1" vertex="1">
                    <mxGeometry x="740" y="-50" width="210" height="50" as="geometry"/>
                </mxCell>
                <mxCell id="F16Nh3tXhF5KqkFv6Rhh-70" style="edgeStyle=none;html=1;exitX=0;exitY=0.5;exitDx=0;exitDy=0;labelBackgroundColor=none;fontSize=20;fontColor=#000000;entryX=1;entryY=0.5;entryDx=0;entryDy=0;rounded=1;" parent="F16Nh3tXhF5KqkFv6Rhh-1" source="F16Nh3tXhF5KqkFv6Rhh-69" target="F16Nh3tXhF5KqkFv6Rhh-71" edge="1">
                    <mxGeometry relative="1" as="geometry">
                        <mxPoint x="930.0000000000005" y="299.6363636363635" as="targetPoint"/>
                    </mxGeometry>
                </mxCell>
                <mxCell id="F16Nh3tXhF5KqkFv6Rhh-69" value="反转栈" style="shape=parallelogram;perimeter=parallelogramPerimeter;whiteSpace=wrap;html=1;fixedSize=1;fontSize=20;fontColor=#000000;fontStyle=1;rounded=1;" parent="F16Nh3tXhF5KqkFv6Rhh-1" vertex="1">
                    <mxGeometry x="1010" y="270" width="120" height="60" as="geometry"/>
                </mxCell>
                <mxCell id="F16Nh3tXhF5KqkFv6Rhh-73" value="" style="edgeStyle=none;html=1;labelBackgroundColor=none;fontSize=20;fontColor=#000000;rounded=1;" parent="F16Nh3tXhF5KqkFv6Rhh-1" source="F16Nh3tXhF5KqkFv6Rhh-71" target="F16Nh3tXhF5KqkFv6Rhh-72" edge="1">
                    <mxGeometry relative="1" as="geometry"/>
                </mxCell>
                <mxCell id="F16Nh3tXhF5KqkFv6Rhh-71" value="转换替换AB" style="shape=parallelogram;perimeter=parallelogramPerimeter;whiteSpace=wrap;html=1;fixedSize=1;fontSize=20;fontColor=#000000;fontStyle=1;rounded=1;" parent="F16Nh3tXhF5KqkFv6Rhh-1" vertex="1">
                    <mxGeometry x="790" y="270" width="150" height="60" as="geometry"/>
                </mxCell>
                <mxCell id="F16Nh3tXhF5KqkFv6Rhh-72" value="打印输出" style="whiteSpace=wrap;html=1;fontSize=20;fontColor=#000000;fontStyle=1;rounded=1;" parent="F16Nh3tXhF5KqkFv6Rhh-1" vertex="1">
                    <mxGeometry x="600" y="270" width="120" height="60" as="geometry"/>
                </mxCell>
            </root>
        </mxGraphModel>
    </diagram>
</mxfile>